<svg xmlns="http://www.w3.org/2000/svg" xmlns:xlink="http://www.w3.org/1999/xlink" width="311" height="444" viewBox="32 40 311 433">
    <defs>
        <path id="b" d="M311 152.5V464a4 4 0 0 1-4 4H4a4 4 0 0 1-4-4V152.5c6.627 0 12-5.373 12-12s-5.373-12-12-12V28a4 4 0 0 1 4-4h303a4 4 0 0 1 4 4v100.5c-6.627 0-12 5.373-12 12s5.373 12 12 12z"/>
        <filter id="a" width="100%" height="100%" x="-10%" y="-20%" filterUnits="objectBoundingBox">
            <feOffset dy="6" in="SourceAlpha" result="shadowOffsetOuter1"/>
            <feGaussianBlur in="shadowOffsetOuter1" result="shadowBlurOuter1" stdDeviation="20"/>
            <feColorMatrix in="shadowBlurOuter1" values="0 0 0 0 0.381784058 0 0 0 0 0.466213216 0 0 0 0 0.49787415 0 0 0 0.575152853 0"/>
        </filter>
    </defs>
    <g fill="none" fill-rule="nonzero" transform="translate(32 10)">
        <use fill="#000" filter="url(#a)" xlink:href="#b"/>
        <use fill="#FFF" xlink:href="#b"/>
    </g>
</svg>
