<svg xmlns="http://www.w3.org/2000/svg" width="20" height="20" viewBox="0 0 20 20">
    <g fill="#FFF" fill-opacity=".3" fill-rule="nonzero" stroke="#FFF" stroke-width="2">
        <path d="M15.439 1c-.782 0-1.409.142-1.921.416a2.635 2.635 0 0 0-1.102 1.102c-.274.512-.416 1.14-.416 1.92v.123c0 .782.142 1.409.416 1.921.255.478.624.847 1.102 1.102.512.274 1.14.416 1.92.416h.123c.782 0 1.409-.142 1.921-.416a2.635 2.635 0 0 0 1.102-1.102c.274-.512.416-1.14.416-1.92v-.123c0-.782-.142-1.409-.416-1.921a2.635 2.635 0 0 0-1.102-1.102C16.97 1.142 16.342 1 15.562 1h-.123zM15.439 12c-.782 0-1.409.142-1.921.416a2.635 2.635 0 0 0-1.102 1.102c-.274.512-.416 1.14-.416 1.92v.123c0 .782.142 1.409.416 1.921.255.478.624.847 1.102 1.102.512.274 1.14.416 1.92.416h.123c.782 0 1.409-.142 1.921-.416a2.635 2.635 0 0 0 1.102-1.102c.274-.512.416-1.14.416-1.92v-.123c0-.782-.142-1.409-.416-1.921a2.635 2.635 0 0 0-1.102-1.102c-.512-.274-1.14-.416-1.92-.416h-.123zM4.439 1c-.782 0-1.409.142-1.921.416a2.635 2.635 0 0 0-1.102 1.102C1.142 3.03 1 3.658 1 4.438v.123c0 .782.142 1.409.416 1.921.255.478.624.847 1.102 1.102.512.274 1.14.416 1.92.416h.123c.782 0 1.409-.142 1.921-.416a2.635 2.635 0 0 0 1.102-1.102C7.858 5.97 8 5.342 8 4.562v-.123c0-.782-.142-1.409-.416-1.921a2.635 2.635 0 0 0-1.102-1.102C5.97 1.142 5.342 1 4.562 1h-.123zM4.439 12c-.782 0-1.409.142-1.921.416a2.635 2.635 0 0 0-1.102 1.102c-.274.512-.416 1.14-.416 1.92v.123c0 .782.142 1.409.416 1.921.255.478.624.847 1.102 1.102.512.274 1.14.416 1.92.416h.123c.782 0 1.409-.142 1.921-.416a2.635 2.635 0 0 0 1.102-1.102c.274-.512.416-1.14.416-1.92v-.123c0-.782-.142-1.409-.416-1.921a2.635 2.635 0 0 0-1.102-1.102C5.97 12.142 5.342 12 4.562 12h-.123z"/>
    </g>
</svg>
