<svg xmlns="http://www.w3.org/2000/svg" width="16" height="16" viewBox="0 0 16 16">
    <path fill="#A0AEB4" d="M6.776 9.224c.338.338.338.886 0 1.224-.338.338-.886.338-1.224 0-1.69-1.69-1.69-4.43 0-6.12l3.06-3.06c1.69-1.69 4.43-1.69 6.12 0 1.69 1.69 1.69 4.43 0 6.12l-1.285 1.286c.007-.71-.11-1.421-.35-2.098l.411-.412c1.014-1.014 1.014-2.658 0-3.672-1.014-1.014-2.658-1.014-3.672 0l-3.06 3.06c-1.014 1.014-1.014 2.658 0 3.672zm2.448-3.672c.338-.338.886-.338 1.224 0 1.69 1.69 1.69 4.43 0 6.12l-3.06 3.06c-1.69 1.69-4.43 1.69-6.12 0-1.69-1.69-1.69-4.43 0-6.12l1.285-1.286c-.007.71.11 1.421.35 2.098l-.411.412c-1.014 1.014-1.014 2.658 0 3.672 1.014 1.014 2.658 1.014 3.672 0l3.06-3.06c1.014-1.014 1.014-2.658 0-3.672-.338-.338-.338-.886 0-1.224z"/>
</svg>
