<svg xmlns="http://www.w3.org/2000/svg" width="67" height="30" viewBox="0 0 67 30">
    <g fill="none" fill-rule="evenodd">
        <path d="M-1 0h69v30H-1z"/>
        <path fill="#FFF" fill-rule="nonzero" d="M13.507 13.356c-.248.02-.994.056-1.27.109.02 1.417-.084 3.41-.77 4.681-.687 1.272-1.504 2.196-2.934 3.036-1.43.841-3.192 1.085-4.44 1.074-1.249-.01-2.338-.26-3.023-.845-.685-.584-.79-1.44-.615-2.31.176-.87.685-1.737 1.705-2.737s2.032-1.687 3.45-2.403c1.42-.717 3.025-1.227 4.201-1.43-.265-.167-.74-.322-1.08-.414-.339-.092-1.411-.37-2.271-.661-.86-.29-1.506-.665-1.927-1.04-.422-.377-.644-.948-.71-1.695-.066-.747.053-2.006.71-3.12.657-1.116 1.33-1.964 2.423-2.69 1.092-.727 2.05-1.15 3.151-1.15s1.72.272 2.064.644c.344.373.531.985.52 1.659-.012.674-.156 1.23-.828 2.25-.673 1.021-1.484 1.683-2.368 2.266-.884.584-1.138-.296-.65-.647.486-.35.98-.827 1.348-1.474.367-.647.531-1.193.492-1.638-.04-.446-.294-.648-.766-.607-.671.058-1.402.545-2.192 1.46-.79.916-1.152 1.74-1.088 2.472.045.503.208.887.49 1.152.283.265.64.484 1.715.849 1.075.365 1.37.52 1.841.805.471.285.906.698 1.178 1.165l1.624-.161c-.004-.209-.01-.393-.015-.553a1.097 1.097 0 0 1 .496-.988c.345-.243.777-.365 1.294-.365.302 0 .522.061.658.183.137.121.212.361.227.719 0 .358.007.623.021.795.46-.573.914-.985 1.36-1.235a2.86 2.86 0 0 1 1.423-.376c.805 0 1.463.322 1.974.966.51.645.765 1.49.765 2.534 0 .76-.122 1.496-.366 2.212a7.213 7.213 0 0 1-1.014 1.954c.302.086.553.13.755.13.474 0 .927-.173 1.359-.516.241-.192.52-.456.839-.792a6.296 6.296 0 0 1-.063-.905c0-.987.209-1.907.626-2.76.417-.85.995-1.527 1.736-2.028.74-.502 1.578-.752 2.513-.752.834 0 1.503.247 2.006.74.503.495.755 1.164.755 2.009 0 .988-.356 1.836-1.068 2.544-.712.71-1.916 1.271-3.613 1.686.36.659 1.043.988 2.05.988.646 0 1.383-.225 2.21-.676.459-.25.883-.544 1.274-.88a5.907 5.907 0 0 1-.034-.634c0-1.16.23-2.176.69-3.05.46-.873 1.058-1.546 1.791-2.018.733-.473 1.503-.709 2.308-.709.79 0 1.406.233 1.844.698.439.465.658 1.063.658 1.793 0 .601-.133 1.11-.399 1.525-.266.415-.615.622-1.046.622-.273 0-.493-.064-.658-.193a.642.642 0 0 1-.248-.537c0-.1.014-.214.043-.343.029-.13.05-.222.065-.28a1.9 1.9 0 0 0 .108-.6c0-.187-.047-.33-.14-.43-.094-.1-.227-.15-.4-.15-.33 0-.64.146-.927.44-.288.293-.518.69-.69 1.192a5.05 5.05 0 0 0-.26 1.653c0 1.66.727 2.491 2.18 2.491.589 0 1.225-.197 1.908-.59.544-.314 1.082-.753 1.612-1.316a60.266 60.266 0 0 1-.005-.8c0-2.204.227-4.502.68-6.893.453-2.39 1.121-4.399 2.006-6.024C43.659.812 44.72 0 45.956 0c.662 0 1.197.283 1.607.848.41.566.615 1.3.615 2.201 0 1.446-.424 2.946-1.273 4.5-.848 1.553-2.229 3.367-4.141 5.443-.043.745-.065 1.51-.065 2.298.69-1.79 1.481-3.089 2.373-3.898.891-.809 1.725-1.213 2.502-1.213.719 0 1.298.243 1.736.73.439.487.658 1.088.658 1.804 0 .787-.201 1.51-.604 2.169-.402.658-1.093 1.245-2.07 1.76.057.387.233.699.528.935.295.236.65.354 1.068.354.445 0 .877-.172 1.294-.515.357-.295.81-.757 1.357-1.388a13.18 13.18 0 0 1-.128-1.898c0-1.746.227-3.736.68-5.97.453-2.233 1.121-4.151 2.006-5.755C54.983.802 56.036 0 57.259 0c.69 0 1.233.319 1.628.956.396.637.593 1.55.593 2.738 0 1.703-.474 3.679-1.423 5.927-.95 2.247-2.236 4.473-3.861 6.678.1.587.266 1.006.496 1.256.23.251.532.376.906.376.59 0 1.107-.168 1.553-.504.253-.191.545-.46.877-.805a6.764 6.764 0 0 1-.057-.903c0-.987.208-1.907.625-2.76.417-.85.996-1.527 1.736-2.028.741-.502 1.579-.752 2.513-.752.834 0 1.503.247 2.006.74.504.495.755 1.164.755 2.009 0 .988-.356 1.836-1.067 2.544-.712.71-1.924 1.271-3.635 1.686.345.659.928.988 1.747.988.59 0 1.075-.136 1.456-.408.381-.272.823-.73 1.327-1.374.172-.215.366-.322.582-.322.187 0 .334.085.442.257.108.172.162.408.162.709 0 .515-.122.96-.367 1.331a4.193 4.193 0 0 1-1.585 1.44c-.654.343-1.434.514-2.34.514-1.38 0-2.452-.411-3.214-1.234a3.915 3.915 0 0 1-.344-.428 8.612 8.612 0 0 1-1.155.932c-.727.487-1.55.73-2.47.73-1.266 0-2.204-.572-2.815-1.717a6.135 6.135 0 0 1-.178-.363 9.666 9.666 0 0 1-1.515 1.372c-.662.472-1.445.708-2.351.708-1.108 0-2-.314-2.675-.944-.676-.63-1.014-1.468-1.014-2.513 0-.558.288-.96.863-1.202.633-.273 1.086-.562 1.359-.87.273-.308.41-.684.41-1.128 0-.257-.054-.45-.162-.58a.5.5 0 0 0-.399-.193c-.388 0-.816.28-1.283.838-.468.558-.903 1.278-1.305 2.158-.403.88-.72 1.786-.95 2.717-.158.672-.341 1.127-.55 1.363-.208.236-.535.354-.98.354-.447 0-.774-.16-.982-.483-.164-.253-.286-.615-.365-1.085-.43.352-.898.65-1.404.892-.942.451-1.851.676-2.729.676-1.409 0-2.505-.397-3.289-1.191a3.929 3.929 0 0 1-.422-.505c-.383.307-.825.6-1.325.88-.97.544-2.01.816-3.117.816-1.51 0-2.682-.408-3.516-1.224a3.912 3.912 0 0 1-.412-.472 8.79 8.79 0 0 1-1.173.966c-.712.487-1.52.73-2.427.73-.762 0-1.38-.272-1.855-.816-.82.53-1.675.802-2.567.816-.187 2.764-.61 5.072-1.272 6.926S13.113 30 11.833 30c-.777 0-1.352-.28-1.726-.838-.374-.558-.56-1.33-.56-2.319 0-1.403.323-3.038.97-4.907.647-1.868 1.647-3.926 2.998-6.174 0-.927-.003-1.73-.008-2.406zm2.513 5.106c.581-.116 1.118-.403 1.61-.86a4.948 4.948 0 0 0 1.174-1.695c.29-.674.436-1.38.436-2.12 0-.434-.097-.764-.29-.989-.194-.224-.452-.336-.775-.336-.581 0-1.283.55-2.107 1.652-.016.637-.024 1.572-.024 2.804 0 .667-.008 1.181-.024 1.544zm-4.105 9.692c.356 0 .653-.838.89-2.513.237-1.676.389-3.761.455-6.256a33.262 33.262 0 0 0-1.345 4.085c-.33 1.297-.495 2.388-.495 3.272 0 .457.05.806.148 1.048.1.243.215.364.347.364zM27.734 12c-.447 0-.824.31-1.132.932-.308.622-.462 1.374-.462 2.255v.044c.712-.203 1.274-.506 1.684-.91.41-.406.616-.875.616-1.41 0-.275-.063-.495-.19-.662a.615.615 0 0 0-.516-.249zM45.312 1.846c-.27 0-.57.374-.9 1.123-.33.749-.65 1.759-.958 3.031a39.314 39.314 0 0 0-.754 4.154c.93-1.061 1.7-2.217 2.308-3.467.608-1.25.912-2.384.912-3.402 0-.465-.053-.821-.158-1.068-.105-.247-.255-.37-.45-.37zm11.443.462c-.364 0-.775.583-1.234 1.75-.46 1.168-.863 2.617-1.211 4.347a28.085 28.085 0 0 0-.57 4.98c1.124-1.646 2.018-3.295 2.683-4.948.665-1.653.997-3.161.997-4.526 0-1.069-.222-1.603-.665-1.603zM62.234 12c-.447 0-.824.31-1.132.932-.308.622-.462 1.374-.462 2.255v.044c.712-.203 1.274-.506 1.684-.91.41-.406.616-.875.616-1.41 0-.275-.063-.495-.19-.662a.615.615 0 0 0-.516-.249zM3.607 19.021c.058.697.612.898 1.645.803.569-.052 1.676-.262 2.544-.803.869-.54 1.625-1.226 2.098-2.235.212-.452.392-.968.487-1.503.118-.66.126-1.311.116-1.437-1.798.356-3.516 1.055-4.914 2.12-1.399 1.064-2.057 2.083-1.976 3.055z"/>
    </g>
</svg>
